<svg width="75" height="75" viewBox="0 0 75 75" fill="none" xmlns="http://www.w3.org/2000/svg">
<mask id="mask0_82_472" style="mask-type:alpha" maskUnits="userSpaceOnUse" x="0" y="0" width="75" height="75">
<rect width="75" height="75" fill="#D9D9D9"/>
</mask>
<g mask="url(#mask0_82_472)">
<path d="M3.125 62.5V53.75C3.125 51.9792 3.58073 50.3516 4.49219 48.8672C5.40365 47.3828 6.61458 46.25 8.125 45.4688C11.3542 43.8542 14.6354 42.6432 17.9688 41.8359C21.3021 41.0286 24.6875 40.625 28.125 40.625C31.5625 40.625 34.9479 41.0286 38.2812 41.8359C41.6146 42.6432 44.8958 43.8542 48.125 45.4688C49.6354 46.25 50.8464 47.3828 51.7578 48.8672C52.6693 50.3516 53.125 51.9792 53.125 53.75V62.5H3.125ZM59.375 62.5V53.125C59.375 50.8333 58.737 48.6328 57.4609 46.5234C56.1849 44.4141 54.375 42.6042 52.0312 41.0938C54.6875 41.4063 57.1875 41.9401 59.5313 42.6953C61.875 43.4505 64.0625 44.375 66.0938 45.4688C67.9688 46.5104 69.401 47.6693 70.3906 48.9453C71.3802 50.2214 71.875 51.6146 71.875 53.125V62.5H59.375ZM28.125 37.5C24.6875 37.5 21.7448 36.276 19.2969 33.8281C16.849 31.3802 15.625 28.4375 15.625 25C15.625 21.5625 16.849 18.6198 19.2969 16.1719C21.7448 13.724 24.6875 12.5 28.125 12.5C31.5625 12.5 34.5052 13.724 36.9531 16.1719C39.401 18.6198 40.625 21.5625 40.625 25C40.625 28.4375 39.401 31.3802 36.9531 33.8281C34.5052 36.276 31.5625 37.5 28.125 37.5ZM59.375 25C59.375 28.4375 58.151 31.3802 55.7031 33.8281C53.2552 36.276 50.3125 37.5 46.875 37.5C46.3021 37.5 45.5729 37.4349 44.6875 37.3047C43.8021 37.1745 43.0729 37.0312 42.5 36.875C43.9062 35.2083 44.987 33.3594 45.7422 31.3281C46.4974 29.2969 46.875 27.1875 46.875 25C46.875 22.8125 46.4974 20.7031 45.7422 18.6719C44.987 16.6406 43.9062 14.7917 42.5 13.125C43.2292 12.8646 43.9583 12.6953 44.6875 12.6172C45.4167 12.5391 46.1458 12.5 46.875 12.5C50.3125 12.5 53.2552 13.724 55.7031 16.1719C58.151 18.6198 59.375 21.5625 59.375 25ZM9.375 56.25H46.875V53.75C46.875 53.1771 46.7318 52.6562 46.4453 52.1875C46.1589 51.7188 45.7812 51.3542 45.3125 51.0938C42.5 49.6875 39.6615 48.6328 36.7969 47.9297C33.9323 47.2266 31.0417 46.875 28.125 46.875C25.2083 46.875 22.3177 47.2266 19.4531 47.9297C16.5885 48.6328 13.75 49.6875 10.9375 51.0938C10.4688 51.3542 10.0911 51.7188 9.80469 52.1875C9.51823 52.6562 9.375 53.1771 9.375 53.75V56.25ZM28.125 31.25C29.8438 31.25 31.3151 30.638 32.5391 29.4141C33.763 28.1901 34.375 26.7188 34.375 25C34.375 23.2812 33.763 21.8099 32.5391 20.5859C31.3151 19.362 29.8438 18.75 28.125 18.75C26.4062 18.75 24.9349 19.362 23.7109 20.5859C22.487 21.8099 21.875 23.2812 21.875 25C21.875 26.7188 22.487 28.1901 23.7109 29.4141C24.9349 30.638 26.4062 31.25 28.125 31.25Z" fill="#F848A7"/>
</g>
</svg>
