<svg width="230" height="75" viewBox="0 0 230 75" fill="none" xmlns="http://www.w3.org/2000/svg">
<mask id="mask0_66_320" style="mask-type:alpha" maskUnits="userSpaceOnUse" x="0" y="0" width="75" height="75">
<rect width="75" height="75" fill="#D9D9D9"/>
</mask>
<g mask="url(#mask0_66_320)">
<path d="M3.125 62.5V53.75C3.125 51.9792 3.58073 50.3516 4.49219 48.8672C5.40365 47.3828 6.61458 46.25 8.125 45.4688C11.3542 43.8542 14.6354 42.6432 17.9688 41.8359C21.3021 41.0286 24.6875 40.625 28.125 40.625C31.5625 40.625 34.9479 41.0286 38.2812 41.8359C41.6146 42.6432 44.8958 43.8542 48.125 45.4688C49.6354 46.25 50.8464 47.3828 51.7578 48.8672C52.6693 50.3516 53.125 51.9792 53.125 53.75V62.5H3.125ZM59.375 62.5V53.125C59.375 50.8333 58.737 48.6328 57.4609 46.5234C56.1849 44.4141 54.375 42.6042 52.0312 41.0938C54.6875 41.4063 57.1875 41.9401 59.5313 42.6953C61.875 43.4505 64.0625 44.375 66.0938 45.4688C67.9688 46.5104 69.401 47.6693 70.3906 48.9453C71.3802 50.2214 71.875 51.6146 71.875 53.125V62.5H59.375ZM28.125 37.5C24.6875 37.5 21.7448 36.276 19.2969 33.8281C16.849 31.3802 15.625 28.4375 15.625 25C15.625 21.5625 16.849 18.6198 19.2969 16.1719C21.7448 13.724 24.6875 12.5 28.125 12.5C31.5625 12.5 34.5052 13.724 36.9531 16.1719C39.401 18.6198 40.625 21.5625 40.625 25C40.625 28.4375 39.401 31.3802 36.9531 33.8281C34.5052 36.276 31.5625 37.5 28.125 37.5ZM59.375 25C59.375 28.4375 58.151 31.3802 55.7031 33.8281C53.2552 36.276 50.3125 37.5 46.875 37.5C46.3021 37.5 45.5729 37.4349 44.6875 37.3047C43.8021 37.1745 43.0729 37.0312 42.5 36.875C43.9062 35.2083 44.987 33.3594 45.7422 31.3281C46.4974 29.2969 46.875 27.1875 46.875 25C46.875 22.8125 46.4974 20.7031 45.7422 18.6719C44.987 16.6406 43.9062 14.7917 42.5 13.125C43.2292 12.8646 43.9583 12.6953 44.6875 12.6172C45.4167 12.5391 46.1458 12.5 46.875 12.5C50.3125 12.5 53.2552 13.724 55.7031 16.1719C58.151 18.6198 59.375 21.5625 59.375 25ZM9.375 56.25H46.875V53.75C46.875 53.1771 46.7318 52.6562 46.4453 52.1875C46.1589 51.7188 45.7812 51.3542 45.3125 51.0938C42.5 49.6875 39.6615 48.6328 36.7969 47.9297C33.9323 47.2266 31.0417 46.875 28.125 46.875C25.2083 46.875 22.3177 47.2266 19.4531 47.9297C16.5885 48.6328 13.75 49.6875 10.9375 51.0938C10.4688 51.3542 10.0911 51.7188 9.80469 52.1875C9.51823 52.6562 9.375 53.1771 9.375 53.75V56.25ZM28.125 31.25C29.8438 31.25 31.3151 30.638 32.5391 29.4141C33.763 28.1901 34.375 26.7188 34.375 25C34.375 23.2812 33.763 21.8099 32.5391 20.5859C31.3151 19.362 29.8438 18.75 28.125 18.75C26.4062 18.75 24.9349 19.362 23.7109 20.5859C22.487 21.8099 21.875 23.2812 21.875 25C21.875 26.7188 22.487 28.1901 23.7109 29.4141C24.9349 30.638 26.4062 31.25 28.125 31.25Z" fill="#FFE5D5"/>
</g>
<path d="M91.3565 30.4545H94.581L98.8991 40.9943H99.0696L103.388 30.4545H106.612V45H104.084V35.0071H103.949L99.929 44.9574H98.0398L94.0199 34.9858H93.8849V45H91.3565V30.4545ZM114.197 45.2131C113.104 45.2131 112.159 44.9858 111.364 44.5312C110.573 44.072 109.964 43.4233 109.538 42.5852C109.112 41.7424 108.899 40.7505 108.899 39.6094C108.899 38.4872 109.112 37.5024 109.538 36.6548C109.969 35.8026 110.571 35.1397 111.342 34.6662C112.114 34.188 113.021 33.9489 114.062 33.9489C114.735 33.9489 115.369 34.0578 115.966 34.2756C116.567 34.4886 117.098 34.8201 117.557 35.2699C118.021 35.7197 118.385 36.2926 118.651 36.9886C118.916 37.6799 119.048 38.5038 119.048 39.4602V40.2486H110.107V38.5156H116.584C116.579 38.0232 116.473 37.5852 116.264 37.2017C116.056 36.8134 115.765 36.508 115.391 36.2855C115.021 36.063 114.59 35.9517 114.098 35.9517C113.572 35.9517 113.111 36.0795 112.713 36.3352C112.315 36.5862 112.005 36.9176 111.783 37.3295C111.565 37.7367 111.454 38.1842 111.449 38.6719V40.1847C111.449 40.8191 111.565 41.3636 111.797 41.8182C112.029 42.268 112.353 42.6136 112.77 42.8551C113.187 43.0919 113.674 43.2102 114.233 43.2102C114.607 43.2102 114.946 43.1581 115.249 43.054C115.552 42.9451 115.814 42.7865 116.037 42.5781C116.259 42.3698 116.428 42.1117 116.541 41.804L118.942 42.0739C118.79 42.7083 118.501 43.2623 118.075 43.7358C117.654 44.2045 117.114 44.5691 116.456 44.8295C115.798 45.0852 115.045 45.2131 114.197 45.2131ZM126.053 45.2131C124.959 45.2131 124.015 44.9858 123.219 44.5312C122.428 44.072 121.82 43.4233 121.394 42.5852C120.968 41.7424 120.755 40.7505 120.755 39.6094C120.755 38.4872 120.968 37.5024 121.394 36.6548C121.825 35.8026 122.426 35.1397 123.198 34.6662C123.97 34.188 124.876 33.9489 125.918 33.9489C126.59 33.9489 127.225 34.0578 127.821 34.2756C128.423 34.4886 128.953 34.8201 129.412 35.2699C129.876 35.7197 130.241 36.2926 130.506 36.9886C130.771 37.6799 130.904 38.5038 130.904 39.4602V40.2486H121.962V38.5156H128.439C128.435 38.0232 128.328 37.5852 128.12 37.2017C127.911 36.8134 127.62 36.508 127.246 36.2855C126.877 36.063 126.446 35.9517 125.953 35.9517C125.428 35.9517 124.966 36.0795 124.569 36.3352C124.171 36.5862 123.861 36.9176 123.638 37.3295C123.42 37.7367 123.309 38.1842 123.304 38.6719V40.1847C123.304 40.8191 123.42 41.3636 123.652 41.8182C123.884 42.268 124.209 42.6136 124.625 42.8551C125.042 43.0919 125.53 43.2102 126.088 43.2102C126.462 43.2102 126.801 43.1581 127.104 43.054C127.407 42.9451 127.67 42.7865 127.892 42.5781C128.115 42.3698 128.283 42.1117 128.397 41.804L130.797 42.0739C130.646 42.7083 130.357 43.2623 129.931 43.7358C129.509 44.2045 128.97 44.5691 128.311 44.8295C127.653 45.0852 126.9 45.2131 126.053 45.2131ZM138.526 34.0909V36.0795H132.255V34.0909H138.526ZM133.803 31.4773H136.374V41.7188C136.374 42.0644 136.426 42.3295 136.531 42.5142C136.639 42.6941 136.781 42.8172 136.957 42.8835C137.132 42.9498 137.326 42.983 137.539 42.983C137.7 42.983 137.847 42.9711 137.979 42.9474C138.117 42.9238 138.221 42.9025 138.292 42.8835L138.725 44.8935C138.588 44.9408 138.391 44.9929 138.136 45.0497C137.885 45.1065 137.577 45.1397 137.212 45.1491C136.568 45.1681 135.988 45.071 135.472 44.858C134.956 44.6402 134.547 44.304 134.244 43.8494C133.945 43.3949 133.799 42.8267 133.803 42.1449V31.4773ZM151.085 34.0909V36.0795H144.814V34.0909H151.085ZM146.362 31.4773H148.933V41.7188C148.933 42.0644 148.985 42.3295 149.089 42.5142C149.198 42.6941 149.34 42.8172 149.515 42.8835C149.69 42.9498 149.885 42.983 150.098 42.983C150.259 42.983 150.405 42.9711 150.538 42.9474C150.675 42.9238 150.779 42.9025 150.85 42.8835L151.284 44.8935C151.146 44.9408 150.95 44.9929 150.694 45.0497C150.443 45.1065 150.136 45.1397 149.771 45.1491C149.127 45.1681 148.547 45.071 148.031 44.858C147.515 44.6402 147.105 44.304 146.802 43.8494C146.504 43.3949 146.357 42.8267 146.362 42.1449V31.4773ZM156.04 38.608V45H153.469V30.4545H155.984V35.9446H156.112C156.367 35.3291 156.763 34.8437 157.298 34.4886C157.837 34.1288 158.524 33.9489 159.357 33.9489C160.115 33.9489 160.775 34.1075 161.339 34.4247C161.902 34.742 162.338 35.206 162.646 35.8168C162.958 36.4276 163.114 37.1733 163.114 38.054V45H160.543V38.4517C160.543 37.7178 160.354 37.1473 159.975 36.7401C159.601 36.3281 159.076 36.1222 158.398 36.1222C157.944 36.1222 157.537 36.2216 157.177 36.4205C156.822 36.6146 156.542 36.8963 156.339 37.2656C156.14 37.6349 156.04 38.0824 156.04 38.608ZM170.565 45.2131C169.471 45.2131 168.526 44.9858 167.731 44.5312C166.94 44.072 166.332 43.4233 165.906 42.5852C165.479 41.7424 165.266 40.7505 165.266 39.6094C165.266 38.4872 165.479 37.5024 165.906 36.6548C166.336 35.8026 166.938 35.1397 167.71 34.6662C168.481 34.188 169.388 33.9489 170.43 33.9489C171.102 33.9489 171.737 34.0578 172.333 34.2756C172.934 34.4886 173.465 34.8201 173.924 35.2699C174.388 35.7197 174.753 36.2926 175.018 36.9886C175.283 37.6799 175.415 38.5038 175.415 39.4602V40.2486H166.474V38.5156H172.951C172.946 38.0232 172.84 37.5852 172.631 37.2017C172.423 36.8134 172.132 36.508 171.758 36.2855C171.388 36.063 170.958 35.9517 170.465 35.9517C169.94 35.9517 169.478 36.0795 169.08 36.3352C168.683 36.5862 168.372 36.9176 168.15 37.3295C167.932 37.7367 167.821 38.1842 167.816 38.6719V40.1847C167.816 40.8191 167.932 41.3636 168.164 41.8182C168.396 42.268 168.72 42.6136 169.137 42.8551C169.554 43.0919 170.041 43.2102 170.6 43.2102C170.974 43.2102 171.313 43.1581 171.616 43.054C171.919 42.9451 172.182 42.7865 172.404 42.5781C172.627 42.3698 172.795 42.1117 172.908 41.804L175.309 42.0739C175.157 42.7083 174.869 43.2623 174.442 43.7358C174.021 44.2045 173.481 44.5691 172.823 44.8295C172.165 45.0852 171.412 45.2131 170.565 45.2131ZM187.999 34.0909V36.0795H181.728V34.0909H187.999ZM183.276 31.4773H185.847V41.7188C185.847 42.0644 185.899 42.3295 186.003 42.5142C186.112 42.6941 186.254 42.8172 186.429 42.8835C186.605 42.9498 186.799 42.983 187.012 42.983C187.173 42.983 187.319 42.9711 187.452 42.9474C187.589 42.9238 187.694 42.9025 187.765 42.8835L188.198 44.8935C188.06 44.9408 187.864 44.9929 187.608 45.0497C187.357 45.1065 187.05 45.1397 186.685 45.1491C186.041 45.1681 185.461 45.071 184.945 44.858C184.429 44.6402 184.019 44.304 183.716 43.8494C183.418 43.3949 183.271 42.8267 183.276 42.1449V31.4773ZM194.862 45.2131C193.768 45.2131 192.823 44.9858 192.028 44.5312C191.237 44.072 190.629 43.4233 190.202 42.5852C189.776 41.7424 189.563 40.7505 189.563 39.6094C189.563 38.4872 189.776 37.5024 190.202 36.6548C190.633 35.8026 191.235 35.1397 192.006 34.6662C192.778 34.188 193.685 33.9489 194.727 33.9489C195.399 33.9489 196.033 34.0578 196.63 34.2756C197.231 34.4886 197.762 34.8201 198.221 35.2699C198.685 35.7197 199.049 36.2926 199.315 36.9886C199.58 37.6799 199.712 38.5038 199.712 39.4602V40.2486H190.771V38.5156H197.248C197.243 38.0232 197.137 37.5852 196.928 37.2017C196.72 36.8134 196.429 36.508 196.055 36.2855C195.685 36.063 195.254 35.9517 194.762 35.9517C194.237 35.9517 193.775 36.0795 193.377 36.3352C192.979 36.5862 192.669 36.9176 192.447 37.3295C192.229 37.7367 192.118 38.1842 192.113 38.6719V40.1847C192.113 40.8191 192.229 41.3636 192.461 41.8182C192.693 42.268 193.017 42.6136 193.434 42.8551C193.851 43.0919 194.338 43.2102 194.897 43.2102C195.271 43.2102 195.61 43.1581 195.913 43.054C196.216 42.9451 196.478 42.7865 196.701 42.5781C196.924 42.3698 197.092 42.1117 197.205 41.804L199.606 42.0739C199.454 42.7083 199.165 43.2623 198.739 43.7358C198.318 44.2045 197.778 44.5691 197.12 44.8295C196.462 45.0852 195.709 45.2131 194.862 45.2131ZM205.027 45.2202C204.335 45.2202 203.713 45.0971 203.159 44.8509C202.609 44.5999 202.174 44.2306 201.852 43.7429C201.535 43.2552 201.376 42.6539 201.376 41.9389C201.376 41.3234 201.49 40.8144 201.717 40.4119C201.944 40.0095 202.254 39.6875 202.647 39.446C203.04 39.2045 203.483 39.0223 203.975 38.8991C204.473 38.7713 204.986 38.679 205.517 38.6222C206.156 38.5559 206.674 38.4967 207.072 38.4446C207.47 38.3878 207.759 38.3026 207.939 38.1889C208.123 38.0705 208.216 37.8883 208.216 37.642V37.5994C208.216 37.0644 208.057 36.6501 207.74 36.3565C207.422 36.063 206.966 35.9162 206.369 35.9162C205.739 35.9162 205.24 36.0535 204.87 36.3281C204.506 36.6027 204.26 36.9271 204.132 37.3011L201.731 36.9602C201.921 36.2973 202.233 35.7434 202.669 35.2983C203.104 34.8485 203.637 34.5123 204.267 34.2898C204.896 34.0625 205.592 33.9489 206.355 33.9489C206.88 33.9489 207.404 34.0104 207.924 34.1335C208.445 34.2566 208.921 34.4602 209.352 34.7443C209.783 35.0237 210.128 35.4048 210.389 35.8878C210.654 36.3707 210.787 36.9744 210.787 37.6989V45H208.315V43.5014H208.23C208.074 43.8045 207.853 44.0885 207.569 44.3537C207.29 44.6141 206.937 44.8248 206.511 44.9858C206.09 45.142 205.595 45.2202 205.027 45.2202ZM205.694 43.331C206.21 43.331 206.658 43.2292 207.037 43.0256C207.415 42.8172 207.707 42.5426 207.91 42.2017C208.118 41.8608 208.223 41.4891 208.223 41.0866V39.8011C208.142 39.8674 208.005 39.929 207.811 39.9858C207.621 40.0426 207.408 40.0923 207.172 40.1349C206.935 40.1776 206.7 40.2154 206.468 40.2486C206.236 40.2817 206.035 40.3101 205.865 40.3338C205.481 40.3859 205.138 40.4711 204.835 40.5895C204.532 40.7079 204.293 40.8736 204.118 41.0866C203.942 41.295 203.855 41.5649 203.855 41.8963C203.855 42.3698 204.028 42.7273 204.373 42.9688C204.719 43.2102 205.159 43.331 205.694 43.331ZM213.372 45V34.0909H215.829V35.9446H215.957C216.184 35.3196 216.561 34.8319 217.086 34.4815C217.612 34.1264 218.239 33.9489 218.968 33.9489C219.707 33.9489 220.33 34.1288 220.836 34.4886C221.348 34.8437 221.708 35.3291 221.916 35.9446H222.029C222.271 35.3385 222.678 34.8556 223.251 34.4957C223.829 34.1312 224.513 33.9489 225.304 33.9489C226.307 33.9489 227.127 34.2661 227.761 34.9006C228.395 35.535 228.713 36.4607 228.713 37.6776V45H226.135V38.0753C226.135 37.3982 225.955 36.9034 225.595 36.5909C225.235 36.2737 224.795 36.1151 224.274 36.1151C223.654 36.1151 223.168 36.3092 222.818 36.6974C222.472 37.081 222.299 37.5805 222.299 38.196V45H219.778V37.9688C219.778 37.4053 219.608 36.9555 219.267 36.6193C218.931 36.2831 218.49 36.1151 217.946 36.1151C217.576 36.1151 217.24 36.2098 216.937 36.3991C216.634 36.5838 216.393 36.8466 216.213 37.1875C216.033 37.5237 215.943 37.9167 215.943 38.3665V45H213.372Z" fill="#FFE5D5"/>
<path d="M89.9219 48.9773H230.005V50.3409H89.9219V48.9773Z" fill="#FFE5D5"/>
</svg>
